<?xml version="1.0" encoding="UTF-8" standalone="no"?>
<svg
        height="24pt"
        viewBox="0 0 199.10936 199.12078"
        version="1.2"
        id="svg267"
        xmlns="http://www.w3.org/2000/svg"
        xmlns:svg="http://www.w3.org/2000/svg">
  <defs
          id="defs224">
    <clipPath
            id="clip1">
      <path
              d="m 107,182 h 6.82422 v 6 H 107 Z m 0,0"
              id="path209" />
    </clipPath>
    <clipPath
            id="clip2">
      <path
              d="M 64.324219,182 H 71 v 6 h -6.675781 z m 0,0"
              id="path212" />
    </clipPath>
    <clipPath
            id="clip3">
      <path
              d="m 101,199 h 11 v 8.44922 h -11 z m 0,0"
              id="path215" />
    </clipPath>
    <clipPath
            id="clip4">
      <path
              d="m 67,199 h 10 v 8.44922 H 67 Z m 0,0"
              id="path218" />
    </clipPath>
    <clipPath
            id="clip5">
      <path
              d="m 67,167.69922 h 45 V 203 H 67 Z m 0,0"
              id="path221" />
    </clipPath>
  </defs>
  <g
          id="surface1"
          transform="translate(-87.945322,-87.939609)">
    <g
            id="g362"
            transform="matrix(2.925558,0,0,2.925558,-73.086076,-361.04212)">
      <path
              style="fill:#ff8f00;fill-opacity:1;fill-rule:nonzero;stroke:none"
              d="m 89.074219,153.46875 c -1.117188,0 -2.226563,0.0547 -3.335938,0.16406 -1.109375,0.10938 -2.210937,0.27344 -3.304687,0.49219 -1.09375,0.21484 -2.171875,0.48437 -3.238282,0.80859 -1.066406,0.32422 -2.117187,0.69922 -3.144531,1.125 -1.03125,0.42969 -2.035156,0.90235 -3.019531,1.42969 -0.984375,0.52344 -1.9375,1.09766 -2.863281,1.71484 -0.929688,0.6211 -1.824219,1.28516 -2.683594,1.99219 -0.863281,0.70703 -1.6875,1.45313 -2.476563,2.24219 -0.785156,0.78906 -1.535156,1.61328 -2.242187,2.47266 -0.707031,0.86328 -1.367187,1.75781 -1.988281,2.68359 -0.617188,0.92578 -1.191406,1.88281 -1.71875,2.86328 -0.523438,0.98438 -1,1.99219 -1.425782,3.01953 -0.425781,1.03125 -0.800781,2.07813 -1.125,3.14453 -0.324218,1.06641 -0.59375,2.14844 -0.8125,3.23828 -0.214843,1.09375 -0.378906,2.19532 -0.488281,3.30469 -0.109375,1.10938 -0.164062,2.22266 -0.164062,3.33594 0,1.11328 0.05469,2.22656 0.164062,3.33594 0.109375,1.10937 0.273438,2.21093 0.488281,3.30468 0.21875,1.08985 0.488282,2.17188 0.8125,3.23829 0.324219,1.0664 0.699219,2.11328 1.125,3.14453 0.425782,1.02734 0.902344,2.03515 1.425782,3.01953 0.527344,0.98047 1.101562,1.9375 1.71875,2.86328 0.621094,0.92578 1.28125,1.82031 1.988281,2.68359 0.707031,0.85938 1.457031,1.6836 2.242187,2.47266 0.789063,0.78906 1.613282,1.53516 2.476563,2.24219 0.859375,0.70703 1.753906,1.37109 2.683594,1.99218 0.925781,0.61719 1.878906,1.19141 2.863281,1.71485 0.984375,0.52734 1.988281,1 3.019531,1.42969 1.027344,0.42578 2.078125,0.80078 3.144531,1.125 1.066407,0.32031 2.144532,0.59375 3.238282,0.80859 1.09375,0.21875 2.195312,0.38281 3.304687,0.49219 1.109375,0.10937 2.21875,0.16406 3.335938,0.16406 1.113281,0 2.226562,-0.0547 3.335937,-0.16406 1.105469,-0.10938 2.207032,-0.27344 3.300782,-0.49219 1.09375,-0.21484 2.171874,-0.48828 3.242187,-0.80859 1.066405,-0.32422 2.113285,-0.69922 3.140625,-1.125 1.03125,-0.42969 2.03906,-0.90235 3.01953,-1.42969 0.98438,-0.52344 1.9375,-1.09766 2.86719,-1.71485 0.92578,-0.62109 1.82031,-1.28515 2.67969,-1.99218 0.86328,-0.70703 1.6875,-1.45313 2.47656,-2.24219 0.78906,-0.78906 1.53516,-1.61328 2.24219,-2.47266 0.70703,-0.86328 1.37109,-1.75781 1.98828,-2.68359 0.62109,-0.92578 1.1914,-1.88281 1.71875,-2.86328 0.52344,-0.98438 1,-1.99219 1.42578,-3.01953 0.42578,-1.03125 0.80078,-2.07813 1.125,-3.14453 0.32422,-1.06641 0.59375,-2.14844 0.8125,-3.23829 0.21875,-1.09375 0.38281,-2.19531 0.48828,-3.30468 0.10938,-1.10938 0.16406,-2.22266 0.16406,-3.33594 0,-1.11328 -0.0547,-2.22656 -0.16406,-3.33594 -0.10547,-1.10937 -0.26953,-2.21094 -0.48828,-3.30469 -0.21875,-1.08984 -0.48828,-2.17187 -0.8125,-3.23828 -0.32422,-1.0664 -0.69922,-2.11328 -1.125,-3.14453 -0.42578,-1.02734 -0.90234,-2.03515 -1.42578,-3.01953 -0.52735,-0.98047 -1.09766,-1.9375 -1.71875,-2.86328 -0.61719,-0.92578 -1.28125,-1.82031 -1.98828,-2.68359 -0.70703,-0.85938 -1.45313,-1.6836 -2.24219,-2.47266 -0.78906,-0.78906 -1.61328,-1.53516 -2.47656,-2.24219 -0.85938,-0.70703 -1.75391,-1.37109 -2.67969,-1.99219 -0.92969,-0.61718 -1.88281,-1.1914 -2.86719,-1.71484 -0.98047,-0.52734 -1.98828,-1 -3.01953,-1.42969 -1.02734,-0.42578 -2.07422,-0.80078 -3.140625,-1.125 -1.070313,-0.32422 -2.148437,-0.59375 -3.242187,-0.80859 -1.09375,-0.21875 -2.195313,-0.38281 -3.300782,-0.49219 -1.109375,-0.10937 -2.222656,-0.16406 -3.335937,-0.16406 z m 0,0"
              id="path230" />
      <g
              clip-path="url(#clip1)"
              clip-rule="nonzero"
              id="g234">
        <path
                style="fill:#171717;fill-opacity:1;fill-rule:nonzero;stroke:none"
                d="m 113.48438,185.93359 c 0.30859,0.91016 -0.17188,1.64063 -1.07422,1.64063 h -3.29297 l -1.67969,-4.91797 h 3.29688 c 0.90234,0 1.88281,0.73437 2.1914,1.64062 z m 0,0"
                id="path232" />
      </g>
      <g
              clip-path="url(#clip2)"
              clip-rule="nonzero"
              id="g238">
        <path
                style="fill:#171717;fill-opacity:1;fill-rule:nonzero;stroke:none"
                d="m 64.660156,185.93359 c -0.308594,0.91016 0.171875,1.64063 1.074219,1.64063 h 3.296875 l 1.679688,-4.91797 h -3.296876 c -0.898437,0 -1.882812,0.73437 -2.191406,1.64062 z m 0,0"
                id="path236" />
      </g>
      <g
              clip-path="url(#clip3)"
              clip-rule="nonzero"
              id="g242">
        <path
                style="fill:#171717;fill-opacity:1;fill-rule:nonzero;stroke:none"
                d="m 111.12891,205.51562 c 0,0.95704 -0.77735,1.73438 -1.73047,1.73438 h -6.34375 c -0.95313,0 -1.73047,-0.77734 -1.73047,-1.73438 v -5.64453 h 9.80469 z m 0,0"
                id="path240" />
      </g>
      <g
              clip-path="url(#clip4)"
              clip-rule="nonzero"
              id="g246">
        <path
                style="fill:#171717;fill-opacity:1;fill-rule:nonzero;stroke:none"
                d="m 76.820312,205.51562 c 0,0.95704 -0.773437,1.73438 -1.730468,1.73438 H 68.75 c -0.957031,0 -1.730469,-0.77734 -1.730469,-1.73438 v -5.64453 h 9.800781 z m 0,0"
                id="path244" />
      </g>
      <g
              clip-path="url(#clip5)"
              clip-rule="nonzero"
              id="g250">
        <path
                style="fill:#171717;fill-opacity:1;fill-rule:nonzero;stroke:none"
                d="m 110.85938,188.75781 c 0,0 -5.11719,-14.61719 -6.07422,-16.76562 -0.84375,-1.88672 -3.53125,-2.73828 -5.007816,-3.14844 0,0 -2.46875,-0.94141 -10.703125,-0.94141 -8.234375,0 -10.703125,0.94141 -10.703125,0.94141 -1.730469,0.57812 -4.136719,1.40234 -5.09375,3.23047 -0.785156,1.50781 -5.988282,16.68359 -5.988282,16.68359 -0.15625,0.26563 -0.269531,1.49219 -0.269531,1.82422 v 9.9375 c 0,1 0.824219,1.8125 1.835938,1.8125 h 40.433591 c 1.01563,0 1.83985,-0.8125 1.83985,-1.8125 v -9.9375 c 0,-0.33203 -0.11328,-1.55859 -0.26953,-1.82422 z m -37.730474,-5.4414 c 1.289063,-5.375 2.695313,-8.41016 3.003906,-9.25782 0.246094,-0.61328 0.488282,-2.51562 12.941407,-2.51562 12.453121,0 12.746091,2.16797 12.777341,2.19531 0.38282,1.15234 1.90625,4.62109 3.1211,9.57813 0,0 -5.257816,1.79687 -15.902348,1.79687 -10.644531,0 -15.941406,-1.79687 -15.941406,-1.79687 z m -3.660156,8.14062 c 0,-1.74609 1.011719,-1.8125 2.101562,-1.8125 1.066407,0 3.175782,0.90625 4.566407,1.53125 1.515625,0.67969 3.210937,1.24609 3.210937,2.37891 0,1.04687 -0.585937,1.52734 -2.5625,1.52734 h -2.625 c -2.347656,0 -4.691406,-0.31641 -4.691406,-1.8125 z m 39.20703,1.8125 c 0,1.5 -2.34375,1.8125 -4.6914,1.8125 h -2.625 c -1.972661,0 -2.562505,-0.48047 -2.562505,-1.52734 0,-1.13282 1.695315,-1.69922 3.210935,-2.37891 1.38672,-0.62109 3.5,-1.53125 4.5625,-1.53125 1.09375,0 2.10547,0.0664 2.10547,1.8125 z m 0,0"
                id="path248" />
      </g>
    </g>
  </g>
</svg>
